# xmcd CD database file
#
# Track frame offsets:
#	150
#	20920
#	37900
#	55125
#	73597
#
# Disc length: 1182 seconds
#
# Revision: 0
# Processed by: cddbd v1.5.1PL2 Copyright (c) Steve Scherf et al.
# Submitted via: CDex 1.51
#
DISCID=3e049c05
DTITLE=Krystyl - Krystyl
DYEAR=1992
DGENRE=Rock
TTITLE0=In The Dark (without you)
TTITLE1=Always And Forever
TTITLE2=The Real Thing
TTITLE3=When It's Love
TTITLE4=Damage In The Dirt
EXTD=YEAR: 1992
EXTT0=
EXTT1=
EXTT2=
EXTT3=
EXTT4=
PLAYORDER=
